<svg xmlns="http://www.w3.org/2000/svg" width="900" height="520" viewBox="0 0 900 520">
  <defs>
    <linearGradient id="bg" x1="0" y1="0" x2="1" y2="1">
      <stop offset="0%" stop-color="#1c1f24"/>
      <stop offset="100%" stop-color="#2a3038"/>
    </linearGradient>
  </defs>
  <rect width="900" height="520" fill="url(#bg)"/>
  <g stroke="#5b6570" stroke-width="1" opacity="0.35">
    <path d="M0 80 H900 M0 160 H900 M0 240 H900 M0 320 H900 M0 400 H900 M0 480 H900"/>
    <path d="M80 0 V520 M160 0 V520 M240 0 V520 M320 0 V520 M400 0 V520 M480 0 V520 M560 0 V520 M640 0 V520 M720 0 V520 M800 0 V520"/>
  </g>
  <rect x="0" y="0" width="900" height="8" fill="#7dd3c7"/>
</svg>
